<svg width="256" height="256" viewBox="0 0 256 256" fill="none" xmlns="http://www.w3.org/2000/svg">
<g clip-path="url(#clip0_4074_2531)">
<path d="M45.257 0H210.742C235.886 0 256 20.114 256 45.257V210.743C256 235.886 235.886 256 210.742 256H45.257C20.114 256 0 235.886 0 210.743V45.257C0 20.114 20.114 0 45.257 0Z" fill="#2C7CFC"/>
<path d="M79.358 183.445C94.6767 181.586 108.694 155.512 112.258 149.426C126.343 147.154 140.083 148.751 144.855 149.256C151.483 158.907 158.856 167.571 168.125 175.087C176.332 181.283 187.676 184.686 194.629 175.478C197.111 172.19 197.377 167.743 195.993 164.116C192.078 154.966 177.051 146.2 158.22 141.792C150.775 130.492 143.411 119.769 132.966 97.4259C136.229 84.9166 142.183 57.9174 133.577 48.8377C131.12 45.9504 127.42 44.7052 123.385 45.2728C119.678 46.0876 116.459 48.3037 114.224 51.2637C105.037 63.4306 112.839 87.9074 120.747 106.786C117.83 115.426 112.919 128.757 106.695 141.096C85.8521 145.494 75.7696 155.436 71.3003 161.355C65.3417 169.247 66.3888 174.685 68.5988 177.902C70.6392 182.023 74.9947 183.764 79.358 183.445ZM79.9854 171.009C77.9359 168.946 77.8729 164.253 83.1583 159.982C89.5166 154.973 96.6919 151.614 104.355 149.655C101.784 154.426 95.5691 164.705 89.0413 170.62C86.3989 172.755 82.7713 174.146 79.9854 171.009ZM189.066 167.148C189.554 168.549 189.465 170.031 188.721 171.017C186.486 173.977 182.38 171.908 179.425 169.677C172.78 164.144 166.881 157.624 162.053 150.366C178.908 155.346 187.354 163.273 189.066 167.148ZM125.884 118.411C129.149 125.006 135.609 135.564 138.556 139.853C131.399 139.095 121.765 139.566 117.152 140.215C116.824 139.967 122.552 128.286 125.884 118.411ZM127.403 89.0953C120.641 72.1148 118.723 58.2746 121.95 53.9996C122.447 53.3421 123.272 52.9316 124.096 52.5219C125.499 52.0311 126.731 52.4456 127.796 53.7653C131.646 58.2219 131.427 71.4809 127.403 89.0953Z" fill="white"/>
</g>
<defs>
<clipPath id="clip0_4074_2531">
<path d="M0 128C0 57.3076 57.3076 0 128 0C198.692 0 256 57.3076 256 128C256 198.692 198.692 256 128 256C57.3076 256 0 198.692 0 128Z" fill="white"/>
</clipPath>
</defs>
</svg>
